G04*
G04 #@! TF.GenerationSoftware,Altium Limited,Altium Designer,21.8.1 (53)*
G04*
G04 Layer_Color=2752767*
%FSLAX25Y25*%
%MOIN*%
G70*
G04*
G04 #@! TF.SameCoordinates,6B1BD33C-14DF-4FC0-A095-B567C4E17EB1*
G04*
G04*
G04 #@! TF.FilePolarity,Positive*
G04*
G01*
G75*
%ADD54C,0.00200*%
%ADD55C,0.00267*%
D54*
X440200Y477200D02*
Y478800D01*
X441800D01*
Y477200D01*
X440200D01*
X393200D02*
Y478800D01*
X394800D01*
Y477200D01*
X393200D01*
X209000Y198700D02*
X208200Y200300D01*
X209800D01*
X209000Y198700D01*
X219000Y188700D02*
X218200Y190300D01*
X219800D01*
X219000Y188700D01*
Y198700D02*
X218200Y200300D01*
X219800D01*
X219000Y198700D01*
X229000Y188700D02*
X228200Y190300D01*
X229800D01*
X229000Y188700D01*
X239000D02*
X238200Y190300D01*
X239800D01*
X239000Y188700D01*
X249000D02*
X248200Y190300D01*
X249800D01*
X249000Y188700D01*
X229000Y198700D02*
X228200Y200300D01*
X229800D01*
X229000Y198700D01*
X239000D02*
X238200Y200300D01*
X239800D01*
X239000Y198700D01*
X249000D02*
X248200Y200300D01*
X249800D01*
X249000Y198700D01*
X259000Y188700D02*
X258200Y190300D01*
X259800D01*
X259000Y188700D01*
Y198700D02*
X258200Y200300D01*
X259800D01*
X259000Y198700D01*
X179000Y188700D02*
X178200Y190300D01*
X179800D01*
X179000Y188700D01*
X189000D02*
X188200Y190300D01*
X189800D01*
X189000Y188700D01*
Y198700D02*
X188200Y200300D01*
X189800D01*
X189000Y198700D01*
X199000Y188700D02*
X198200Y190300D01*
X199800D01*
X199000Y188700D01*
Y198700D02*
X198200Y200300D01*
X199800D01*
X199000Y198700D01*
X209000Y188700D02*
X208200Y190300D01*
X209800D01*
X209000Y188700D01*
X179000Y198700D02*
X178200Y200300D01*
X179800D01*
X179000Y198700D01*
X269000Y188700D02*
X268200Y190300D01*
X269800D01*
X269000Y188700D01*
Y198700D02*
X268200Y200300D01*
X269800D01*
X269000Y198700D01*
X286693Y263944D02*
X287093Y264344D01*
X287493D01*
X287093Y264744D01*
X287493Y265144D01*
X287093D01*
X286693Y265544D01*
X286293Y265144D01*
X285893D01*
X286293Y264744D01*
X285893Y264344D01*
X286293D01*
X286693Y263944D01*
Y269456D02*
X287093Y269856D01*
X287493D01*
X287093Y270256D01*
X287493Y270656D01*
X287093D01*
X286693Y271056D01*
X286293Y270656D01*
X285893D01*
X286293Y270256D01*
X285893Y269856D01*
X286293D01*
X286693Y269456D01*
X427700Y255200D02*
X428100Y256000D01*
X427700Y256800D01*
X428500Y256400D01*
X429300Y256800D01*
X428900Y256000D01*
X429300Y255200D01*
X428500Y255600D01*
X427700Y255200D01*
Y245200D02*
X428100Y246000D01*
X427700Y246800D01*
X428500Y246400D01*
X429300Y246800D01*
X428900Y246000D01*
X429300Y245200D01*
X428500Y245600D01*
X427700Y245200D01*
Y235200D02*
X428100Y236000D01*
X427700Y236800D01*
X428500Y236400D01*
X429300Y236800D01*
X428900Y236000D01*
X429300Y235200D01*
X428500Y235600D01*
X427700Y235200D01*
Y225200D02*
X428100Y226000D01*
X427700Y226800D01*
X428500Y226400D01*
X429300Y226800D01*
X428900Y226000D01*
X429300Y225200D01*
X428500Y225600D01*
X427700Y225200D01*
Y215200D02*
X428100Y216000D01*
X427700Y216800D01*
X428500Y216400D01*
X429300Y216800D01*
X428900Y216000D01*
X429300Y215200D01*
X428500Y215600D01*
X427700Y215200D01*
Y205200D02*
X428100Y206000D01*
X427700Y206800D01*
X428500Y206400D01*
X429300Y206800D01*
X428900Y206000D01*
X429300Y205200D01*
X428500Y205600D01*
X427700Y205200D01*
X378700Y254200D02*
X379100Y255000D01*
X378700Y255800D01*
X379500Y255400D01*
X380300Y255800D01*
X379900Y255000D01*
X380300Y254200D01*
X379500Y254600D01*
X378700Y254200D01*
Y244200D02*
X379100Y245000D01*
X378700Y245800D01*
X379500Y245400D01*
X380300Y245800D01*
X379900Y245000D01*
X380300Y244200D01*
X379500Y244600D01*
X378700Y244200D01*
Y234200D02*
X379100Y235000D01*
X378700Y235800D01*
X379500Y235400D01*
X380300Y235800D01*
X379900Y235000D01*
X380300Y234200D01*
X379500Y234600D01*
X378700Y234200D01*
Y224200D02*
X379100Y225000D01*
X378700Y225800D01*
X379500Y225400D01*
X380300Y225800D01*
X379900Y225000D01*
X380300Y224200D01*
X379500Y224600D01*
X378700Y224200D01*
Y214200D02*
X379100Y215000D01*
X378700Y215800D01*
X379500Y215400D01*
X380300Y215800D01*
X379900Y215000D01*
X380300Y214200D01*
X379500Y214600D01*
X378700Y214200D01*
Y204200D02*
X379100Y205000D01*
X378700Y205800D01*
X379500Y205400D01*
X380300Y205800D01*
X379900Y205000D01*
X380300Y204200D01*
X379500Y204600D01*
X378700Y204200D01*
X398100Y349100D02*
Y348700D01*
X398900D01*
Y349100D01*
X399300D01*
Y349900D01*
X398900D01*
Y350300D01*
X398100D01*
Y349900D01*
X397700D01*
Y349100D01*
X398100D01*
X397342Y304196D02*
Y303796D01*
X398142D01*
Y304196D01*
X398542D01*
Y304996D01*
X398142D01*
Y305396D01*
X397342D01*
Y304996D01*
X396942D01*
Y304196D01*
X397342D01*
X397600Y282600D02*
Y282200D01*
X398400D01*
Y282600D01*
X398800D01*
Y283400D01*
X398400D01*
Y283800D01*
X397600D01*
Y283400D01*
X397200D01*
Y282600D01*
X397600D01*
X153100Y369100D02*
Y368700D01*
X153900D01*
Y369100D01*
X154300D01*
Y369900D01*
X153900D01*
Y370300D01*
X153100D01*
Y369900D01*
X152700D01*
Y369100D01*
X153100D01*
X423100Y424600D02*
Y424200D01*
X423900D01*
Y424600D01*
X424300D01*
Y425400D01*
X423900D01*
Y425800D01*
X423100D01*
Y425400D01*
X422700D01*
Y424600D01*
X423100D01*
X171100Y303100D02*
Y302700D01*
X171900D01*
Y303100D01*
X172300D01*
Y303900D01*
X171900D01*
Y304300D01*
X171100D01*
Y303900D01*
X170700D01*
Y303100D01*
X171100D01*
X408100Y439100D02*
Y438700D01*
X408900D01*
Y439100D01*
X409300D01*
Y439900D01*
X408900D01*
Y440300D01*
X408100D01*
Y439900D01*
X407700D01*
Y439100D01*
X408100D01*
X214600Y329100D02*
Y328700D01*
X215400D01*
Y329100D01*
X215800D01*
Y329900D01*
X215400D01*
Y330300D01*
X214600D01*
Y329900D01*
X214200D01*
Y329100D01*
X214600D01*
X272100Y314665D02*
Y314265D01*
X272900D01*
Y314665D01*
X273300D01*
Y315465D01*
X272900D01*
Y315865D01*
X272100D01*
Y315465D01*
X271700D01*
Y314665D01*
X272100D01*
X279266Y325990D02*
Y325590D01*
X280066D01*
Y325990D01*
X280466D01*
Y326790D01*
X280066D01*
Y327190D01*
X279266D01*
Y326790D01*
X278866D01*
Y325990D01*
X279266D01*
X275100Y302600D02*
Y302200D01*
X275900D01*
Y302600D01*
X276300D01*
Y303400D01*
X275900D01*
Y303800D01*
X275100D01*
Y303400D01*
X274700D01*
Y302600D01*
X275100D01*
X271600Y373100D02*
Y372700D01*
X272400D01*
Y373100D01*
X272800D01*
Y373900D01*
X272400D01*
Y374300D01*
X271600D01*
Y373900D01*
X271200D01*
Y373100D01*
X271600D01*
X342100Y371100D02*
Y370700D01*
X342900D01*
Y371100D01*
X343300D01*
Y371900D01*
X342900D01*
Y372300D01*
X342100D01*
Y371900D01*
X341700D01*
Y371100D01*
X342100D01*
X271600Y359100D02*
Y358700D01*
X272400D01*
Y359100D01*
X272800D01*
Y359900D01*
X272400D01*
Y360300D01*
X271600D01*
Y359900D01*
X271200D01*
Y359100D01*
X271600D01*
X258100Y331600D02*
Y331200D01*
X258900D01*
Y331600D01*
X259300D01*
Y332400D01*
X258900D01*
Y332800D01*
X258100D01*
Y332400D01*
X257700D01*
Y331600D01*
X258100D01*
X238600Y311600D02*
Y311200D01*
X239400D01*
Y311600D01*
X239800D01*
Y312400D01*
X239400D01*
Y312800D01*
X238600D01*
Y312400D01*
X238200D01*
Y311600D01*
X238600D01*
X185100Y304600D02*
Y304200D01*
X185900D01*
Y304600D01*
X186300D01*
Y305400D01*
X185900D01*
Y305800D01*
X185100D01*
Y305400D01*
X184700D01*
Y304600D01*
X185100D01*
X419600Y378100D02*
Y377700D01*
X420400D01*
Y378100D01*
X420800D01*
Y378900D01*
X420400D01*
Y379300D01*
X419600D01*
Y378900D01*
X419200D01*
Y378100D01*
X419600D01*
Y368600D02*
Y368200D01*
X420400D01*
Y368600D01*
X420800D01*
Y369400D01*
X420400D01*
Y369800D01*
X419600D01*
Y369400D01*
X419200D01*
Y368600D01*
X419600D01*
X379100Y380100D02*
Y379700D01*
X379900D01*
Y380100D01*
X380300D01*
Y380900D01*
X379900D01*
Y381300D01*
X379100D01*
Y380900D01*
X378700D01*
Y380100D01*
X379100D01*
X280600Y258600D02*
Y258200D01*
X281400D01*
Y258600D01*
X281800D01*
Y259400D01*
X281400D01*
Y259800D01*
X280600D01*
Y259400D01*
X280200D01*
Y258600D01*
X280600D01*
X266600Y253600D02*
Y253200D01*
X267400D01*
Y253600D01*
X267800D01*
Y254400D01*
X267400D01*
Y254800D01*
X266600D01*
Y254400D01*
X266200D01*
Y253600D01*
X266600D01*
X283600Y252100D02*
Y251700D01*
X284400D01*
Y252100D01*
X284800D01*
Y252900D01*
X284400D01*
Y253300D01*
X283600D01*
Y252900D01*
X283200D01*
Y252100D01*
X283600D01*
X275100Y244600D02*
Y244200D01*
X275900D01*
Y244600D01*
X276300D01*
Y245400D01*
X275900D01*
Y245800D01*
X275100D01*
Y245400D01*
X274700D01*
Y244600D01*
X275100D01*
X277100Y236600D02*
Y236200D01*
X277900D01*
Y236600D01*
X278300D01*
Y237400D01*
X277900D01*
Y237800D01*
X277100D01*
Y237400D01*
X276700D01*
Y236600D01*
X277100D01*
X266625Y235125D02*
Y234725D01*
X267425D01*
Y235125D01*
X267825D01*
Y235925D01*
X267425D01*
Y236325D01*
X266625D01*
Y235925D01*
X266225D01*
Y235125D01*
X266625D01*
X261100Y237100D02*
Y236700D01*
X261900D01*
Y237100D01*
X262300D01*
Y237900D01*
X261900D01*
Y238300D01*
X261100D01*
Y237900D01*
X260700D01*
Y237100D01*
X261100D01*
X254100Y247600D02*
Y247200D01*
X254900D01*
Y247600D01*
X255300D01*
Y248400D01*
X254900D01*
Y248800D01*
X254100D01*
Y248400D01*
X253700D01*
Y247600D01*
X254100D01*
X200100Y316100D02*
Y315700D01*
X200900D01*
Y316100D01*
X201300D01*
Y316900D01*
X200900D01*
Y317300D01*
X200100D01*
Y316900D01*
X199700D01*
Y316100D01*
X200100D01*
X199100Y301600D02*
Y301200D01*
X199900D01*
Y301600D01*
X200300D01*
Y302400D01*
X199900D01*
Y302800D01*
X199100D01*
Y302400D01*
X198700D01*
Y301600D01*
X199100D01*
X197600Y290100D02*
Y289700D01*
X198400D01*
Y290100D01*
X198800D01*
Y290900D01*
X198400D01*
Y291300D01*
X197600D01*
Y290900D01*
X197200D01*
Y290100D01*
X197600D01*
X273600Y275100D02*
Y274700D01*
X274400D01*
Y275100D01*
X274800D01*
Y275900D01*
X274400D01*
Y276300D01*
X273600D01*
Y275900D01*
X273200D01*
Y275100D01*
X273600D01*
X258100Y279100D02*
Y278700D01*
X258900D01*
Y279100D01*
X259300D01*
Y279900D01*
X258900D01*
Y280300D01*
X258100D01*
Y279900D01*
X257700D01*
Y279100D01*
X258100D01*
Y310600D02*
Y310200D01*
X258900D01*
Y310600D01*
X259300D01*
Y311400D01*
X258900D01*
Y311800D01*
X258100D01*
Y311400D01*
X257700D01*
Y310600D01*
X258100D01*
X274600Y262100D02*
Y261700D01*
X275400D01*
Y262100D01*
X275800D01*
Y262900D01*
X275400D01*
Y263300D01*
X274600D01*
Y262900D01*
X274200D01*
Y262100D01*
X274600D01*
Y269100D02*
Y268700D01*
X275400D01*
Y269100D01*
X275800D01*
Y269900D01*
X275400D01*
Y270300D01*
X274600D01*
Y269900D01*
X274200D01*
Y269100D01*
X274600D01*
X281100Y282600D02*
Y282200D01*
X281900D01*
Y282600D01*
X282300D01*
Y283400D01*
X281900D01*
Y283800D01*
X281100D01*
Y283400D01*
X280700D01*
Y282600D01*
X281100D01*
X228365Y270100D02*
Y269700D01*
X229165D01*
Y270100D01*
X229565D01*
Y270900D01*
X229165D01*
Y271300D01*
X228365D01*
Y270900D01*
X227965D01*
Y270100D01*
X228365D01*
X255100Y295100D02*
Y294700D01*
X255900D01*
Y295100D01*
X256300D01*
Y295900D01*
X255900D01*
Y296300D01*
X255100D01*
Y295900D01*
X254700D01*
Y295100D01*
X255100D01*
X237600Y419600D02*
Y419200D01*
X238400D01*
Y419600D01*
X238800D01*
Y420400D01*
X238400D01*
Y420800D01*
X237600D01*
Y420400D01*
X237200D01*
Y419600D01*
X237600D01*
X313100Y347100D02*
Y346700D01*
X313900D01*
Y347100D01*
X314300D01*
Y347900D01*
X313900D01*
Y348300D01*
X313100D01*
Y347900D01*
X312700D01*
Y347100D01*
X313100D01*
X197600Y276100D02*
Y275700D01*
X198400D01*
Y276100D01*
X198800D01*
Y276900D01*
X198400D01*
Y277300D01*
X197600D01*
Y276900D01*
X197200D01*
Y276100D01*
X197600D01*
X241600Y277600D02*
Y277200D01*
X242400D01*
Y277600D01*
X242800D01*
Y278400D01*
X242400D01*
Y278800D01*
X241600D01*
Y278400D01*
X241200D01*
Y277600D01*
X241600D01*
X237100Y283600D02*
Y283200D01*
X237900D01*
Y283600D01*
X238300D01*
Y284400D01*
X237900D01*
Y284800D01*
X237100D01*
Y284400D01*
X236700D01*
Y283600D01*
X237100D01*
X231100Y276600D02*
Y276200D01*
X231900D01*
Y276600D01*
X232300D01*
Y277400D01*
X231900D01*
Y277800D01*
X231100D01*
Y277400D01*
X230700D01*
Y276600D01*
X231100D01*
D55*
X471800Y394000D02*
G03*
X471800Y394000I-800J0D01*
G01*
X451800Y389000D02*
G03*
X451800Y389000I-800J0D01*
G01*
X471800Y384000D02*
G03*
X471800Y384000I-800J0D01*
G01*
X451800Y379000D02*
G03*
X451800Y379000I-800J0D01*
G01*
X471800Y374000D02*
G03*
X471800Y374000I-800J0D01*
G01*
X451800Y369000D02*
G03*
X451800Y369000I-800J0D01*
G01*
X471800Y364000D02*
G03*
X471800Y364000I-800J0D01*
G01*
X451800Y359000D02*
G03*
X451800Y359000I-800J0D01*
G01*
X471800Y354000D02*
G03*
X471800Y354000I-800J0D01*
G01*
X451800Y349000D02*
G03*
X451800Y349000I-800J0D01*
G01*
X471800Y344000D02*
G03*
X471800Y344000I-800J0D01*
G01*
X451800Y339000D02*
G03*
X451800Y339000I-800J0D01*
G01*
X471800Y334000D02*
G03*
X471800Y334000I-800J0D01*
G01*
X451800Y329000D02*
G03*
X451800Y329000I-800J0D01*
G01*
X471800Y324000D02*
G03*
X471800Y324000I-800J0D01*
G01*
M02*
