G04*
G04 #@! TF.GenerationSoftware,Altium Limited,Altium Designer,21.8.1 (53)*
G04*
G04 Layer_Color=128*
%FSLAX25Y25*%
%MOIN*%
G70*
G04*
G04 #@! TF.SameCoordinates,6B1BD33C-14DF-4FC0-A095-B567C4E17EB1*
G04*
G04*
G04 #@! TF.FilePolarity,Positive*
G04*
G01*
G75*
%ADD54C,0.00200*%
D54*
X435094Y478000D02*
X446906D01*
X441000Y472094D02*
Y483906D01*
X388094Y478000D02*
X399905D01*
X394000Y472094D02*
Y483906D01*
X469031Y394000D02*
X472968D01*
X471000Y392032D02*
Y395969D01*
X449031Y389000D02*
X452969D01*
X451000Y387032D02*
Y390968D01*
X469031Y384000D02*
X472968D01*
X471000Y382031D02*
Y385968D01*
X449031Y379000D02*
X452969D01*
X451000Y377031D02*
Y380968D01*
X469031Y374000D02*
X472968D01*
X471000Y372031D02*
Y375969D01*
X449031Y369000D02*
X452969D01*
X451000Y367032D02*
Y370969D01*
X469031Y364000D02*
X472968D01*
X471000Y362032D02*
Y365968D01*
X449031Y359000D02*
X452969D01*
X451000Y357031D02*
Y360968D01*
X469031Y354000D02*
X472968D01*
X471000Y352031D02*
Y355968D01*
X449031Y349000D02*
X452969D01*
X451000Y347031D02*
Y350969D01*
X469031Y344000D02*
X472968D01*
X471000Y342032D02*
Y345969D01*
X449031Y339000D02*
X452969D01*
X451000Y337032D02*
Y340968D01*
X469031Y334000D02*
X472968D01*
X471000Y332031D02*
Y335968D01*
X449031Y329000D02*
X452969D01*
X451000Y327031D02*
Y330968D01*
X469031Y324000D02*
X472968D01*
X471000Y322031D02*
Y325969D01*
X206750Y199500D02*
X211250D01*
X209000Y197250D02*
Y201750D01*
X216750Y189500D02*
X221250D01*
X219000Y187250D02*
Y191750D01*
X216750Y199500D02*
X221250D01*
X219000Y197250D02*
Y201750D01*
X226750Y189500D02*
X231250D01*
X229000Y187250D02*
Y191750D01*
X236750Y189500D02*
X241250D01*
X239000Y187250D02*
Y191750D01*
X246750Y189500D02*
X251250D01*
X249000Y187250D02*
Y191750D01*
X226750Y199500D02*
X231250D01*
X229000Y197250D02*
Y201750D01*
X236750Y199500D02*
X241250D01*
X239000Y197250D02*
Y201750D01*
X246750Y199500D02*
X251250D01*
X249000Y197250D02*
Y201750D01*
X256750Y189500D02*
X261250D01*
X259000Y187250D02*
Y191750D01*
X256750Y199500D02*
X261250D01*
X259000Y197250D02*
Y201750D01*
X176750Y189500D02*
X181250D01*
X179000Y187250D02*
Y191750D01*
X186750Y189500D02*
X191250D01*
X189000Y187250D02*
Y191750D01*
X186750Y199500D02*
X191250D01*
X189000Y197250D02*
Y201750D01*
X196750Y189500D02*
X201250D01*
X199000Y187250D02*
Y191750D01*
X196750Y199500D02*
X201250D01*
X199000Y197250D02*
Y201750D01*
X206750Y189500D02*
X211250D01*
X209000Y187250D02*
Y191750D01*
X176750Y199500D02*
X181250D01*
X179000Y197250D02*
Y201750D01*
X266750Y189500D02*
X271250D01*
X269000Y187250D02*
Y191750D01*
X266750Y199500D02*
X271250D01*
X269000Y197250D02*
Y201750D01*
X285807Y264744D02*
X287579D01*
X286693Y263858D02*
Y265630D01*
X285807Y270256D02*
X287579D01*
X286693Y269370D02*
Y271142D01*
X426728Y256000D02*
X430272D01*
X428500Y254228D02*
Y257772D01*
X426728Y246000D02*
X430272D01*
X428500Y244228D02*
Y247772D01*
X426728Y236000D02*
X430272D01*
X428500Y234228D02*
Y237772D01*
X426728Y226000D02*
X430272D01*
X428500Y224228D02*
Y227772D01*
X426728Y216000D02*
X430272D01*
X428500Y214228D02*
Y217772D01*
X426728Y206000D02*
X430272D01*
X428500Y204228D02*
Y207772D01*
X377728Y255000D02*
X381272D01*
X379500Y253228D02*
Y256772D01*
X377728Y245000D02*
X381272D01*
X379500Y243228D02*
Y246772D01*
X377728Y235000D02*
X381272D01*
X379500Y233228D02*
Y236772D01*
X377728Y225000D02*
X381272D01*
X379500Y223228D02*
Y226772D01*
X377728Y215000D02*
X381272D01*
X379500Y213228D02*
Y216772D01*
X377728Y205000D02*
X381272D01*
X379500Y203228D02*
Y206772D01*
X397100Y349500D02*
X399900D01*
X398500Y348100D02*
Y350900D01*
X396342Y304596D02*
X399142D01*
X397742Y303196D02*
Y305996D01*
X396600Y283000D02*
X399400D01*
X398000Y281600D02*
Y284400D01*
X152100Y369500D02*
X154900D01*
X153500Y368100D02*
Y370900D01*
X422100Y425000D02*
X424900D01*
X423500Y423600D02*
Y426400D01*
X170100Y303500D02*
X172900D01*
X171500Y302100D02*
Y304900D01*
X407100Y439500D02*
X409900D01*
X408500Y438100D02*
Y440900D01*
X213600Y329500D02*
X216400D01*
X215000Y328100D02*
Y330900D01*
X271100Y315065D02*
X273900D01*
X272500Y313665D02*
Y316465D01*
X278266Y326390D02*
X281066D01*
X279666Y324990D02*
Y327790D01*
X274100Y303000D02*
X276900D01*
X275500Y301600D02*
Y304400D01*
X270600Y373500D02*
X273400D01*
X272000Y372100D02*
Y374900D01*
X341100Y371500D02*
X343900D01*
X342500Y370100D02*
Y372900D01*
X270600Y359500D02*
X273400D01*
X272000Y358100D02*
Y360900D01*
X257100Y332000D02*
X259900D01*
X258500Y330600D02*
Y333400D01*
X237600Y312000D02*
X240400D01*
X239000Y310600D02*
Y313400D01*
X184100Y305000D02*
X186900D01*
X185500Y303600D02*
Y306400D01*
X418600Y378500D02*
X421400D01*
X420000Y377100D02*
Y379900D01*
X418600Y369000D02*
X421400D01*
X420000Y367600D02*
Y370400D01*
X378100Y380500D02*
X380900D01*
X379500Y379100D02*
Y381900D01*
X279600Y259000D02*
X282400D01*
X281000Y257600D02*
Y260400D01*
X265600Y254000D02*
X268400D01*
X267000Y252600D02*
Y255400D01*
X282600Y252500D02*
X285400D01*
X284000Y251100D02*
Y253900D01*
X274100Y245000D02*
X276900D01*
X275500Y243600D02*
Y246400D01*
X276100Y237000D02*
X278900D01*
X277500Y235600D02*
Y238400D01*
X265625Y235525D02*
X268425D01*
X267025Y234125D02*
Y236925D01*
X260100Y237500D02*
X262900D01*
X261500Y236100D02*
Y238900D01*
X253100Y248000D02*
X255900D01*
X254500Y246600D02*
Y249400D01*
X199100Y316500D02*
X201900D01*
X200500Y315100D02*
Y317900D01*
X198100Y302000D02*
X200900D01*
X199500Y300600D02*
Y303400D01*
X196600Y290500D02*
X199400D01*
X198000Y289100D02*
Y291900D01*
X272600Y275500D02*
X275400D01*
X274000Y274100D02*
Y276900D01*
X257100Y279500D02*
X259900D01*
X258500Y278100D02*
Y280900D01*
X257100Y311000D02*
X259900D01*
X258500Y309600D02*
Y312400D01*
X273600Y262500D02*
X276400D01*
X275000Y261100D02*
Y263900D01*
X273600Y269500D02*
X276400D01*
X275000Y268100D02*
Y270900D01*
X280100Y283000D02*
X282900D01*
X281500Y281600D02*
Y284400D01*
X227365Y270500D02*
X230165D01*
X228765Y269100D02*
Y271900D01*
X254100Y295500D02*
X256900D01*
X255500Y294100D02*
Y296900D01*
X236600Y420000D02*
X239400D01*
X238000Y418600D02*
Y421400D01*
X312100Y347500D02*
X314900D01*
X313500Y346100D02*
Y348900D01*
X196600Y276500D02*
X199400D01*
X198000Y275100D02*
Y277900D01*
X240600Y278000D02*
X243400D01*
X242000Y276600D02*
Y279400D01*
X236100Y284000D02*
X238900D01*
X237500Y282600D02*
Y285400D01*
X230100Y277000D02*
X232900D01*
X231500Y275600D02*
Y278400D01*
M02*
