G04*
G04 #@! TF.GenerationSoftware,Altium Limited,Altium Designer,21.8.1 (53)*
G04*
G04 Layer_Color=16711935*
%FSLAX25Y25*%
%MOIN*%
G70*
G04*
G04 #@! TF.SameCoordinates,6B1BD33C-14DF-4FC0-A095-B567C4E17EB1*
G04*
G04*
G04 #@! TF.FilePolarity,Negative*
G04*
G01*
G75*
%ADD14R,0.05288X0.05524*%
%ADD15R,0.05524X0.05288*%
%ADD23C,0.20485*%
%ADD24C,0.07099*%
%ADD25R,0.07099X0.07099*%
%ADD26C,0.08800*%
%ADD27C,0.03556*%
%ADD28R,0.06706X0.06706*%
%ADD29C,0.06706*%
%ADD30C,0.05800*%
D14*
X266000Y344500D02*
D03*
X258520D02*
D03*
X449000Y246000D02*
D03*
X456480D02*
D03*
X449020Y267500D02*
D03*
X456500D02*
D03*
D15*
X239500Y328500D02*
D03*
Y321020D02*
D03*
D23*
X441000Y478000D02*
D03*
X394000D02*
D03*
D24*
X471000Y394000D02*
D03*
X451000Y389000D02*
D03*
X471000Y384000D02*
D03*
X451000Y379000D02*
D03*
X471000Y374000D02*
D03*
X451000Y369000D02*
D03*
X471000Y364000D02*
D03*
X451000Y359000D02*
D03*
X471000Y354000D02*
D03*
X451000Y349000D02*
D03*
X471000Y344000D02*
D03*
X451000Y339000D02*
D03*
X471000Y334000D02*
D03*
X451000Y329000D02*
D03*
D25*
X471000Y324000D02*
D03*
D26*
X209000Y199500D02*
D03*
X219000Y189500D02*
D03*
Y199500D02*
D03*
X229000Y189500D02*
D03*
X239000D02*
D03*
X249000D02*
D03*
X229000Y199500D02*
D03*
X239000D02*
D03*
X249000D02*
D03*
X259000Y189500D02*
D03*
Y199500D02*
D03*
X179000Y189500D02*
D03*
X189000D02*
D03*
Y199500D02*
D03*
X199000Y189500D02*
D03*
Y199500D02*
D03*
X209000Y189500D02*
D03*
X179000Y199500D02*
D03*
X269000Y189500D02*
D03*
Y199500D02*
D03*
D27*
X286693Y264744D02*
D03*
Y270256D02*
D03*
D28*
X428500Y256000D02*
D03*
X379500Y255000D02*
D03*
D29*
X428500Y246000D02*
D03*
Y236000D02*
D03*
Y226000D02*
D03*
Y216000D02*
D03*
Y206000D02*
D03*
X379500Y245000D02*
D03*
Y235000D02*
D03*
Y225000D02*
D03*
Y215000D02*
D03*
Y205000D02*
D03*
D30*
X398500Y349500D02*
D03*
X397742Y304596D02*
D03*
X398000Y283000D02*
D03*
X153500Y369500D02*
D03*
X423500Y425000D02*
D03*
X171500Y303500D02*
D03*
X408500Y439500D02*
D03*
X215000Y329500D02*
D03*
X272500Y315065D02*
D03*
X279666Y326390D02*
D03*
X275500Y303000D02*
D03*
X272000Y373500D02*
D03*
X342500Y371500D02*
D03*
X272000Y359500D02*
D03*
X258500Y332000D02*
D03*
X239000Y312000D02*
D03*
X185500Y305000D02*
D03*
X420000Y378500D02*
D03*
Y369000D02*
D03*
X379500Y380500D02*
D03*
X281000Y259000D02*
D03*
X267000Y254000D02*
D03*
X284000Y252500D02*
D03*
X275500Y245000D02*
D03*
X277500Y237000D02*
D03*
X267025Y235525D02*
D03*
X261500Y237500D02*
D03*
X254500Y248000D02*
D03*
X200500Y316500D02*
D03*
X199500Y302000D02*
D03*
X198000Y290500D02*
D03*
X274000Y275500D02*
D03*
X258500Y279500D02*
D03*
Y311000D02*
D03*
X275000Y262500D02*
D03*
Y269500D02*
D03*
X281500Y283000D02*
D03*
X228765Y270500D02*
D03*
X255500Y295500D02*
D03*
X238000Y420000D02*
D03*
X313500Y347500D02*
D03*
X198000Y276500D02*
D03*
X242000Y278000D02*
D03*
X237500Y284000D02*
D03*
X231500Y277000D02*
D03*
M02*
