G04*
G04 #@! TF.GenerationSoftware,Altium Limited,Altium Designer,21.8.1 (53)*
G04*
G04 Layer_Color=65535*
%FSLAX25Y25*%
%MOIN*%
G70*
G04*
G04 #@! TF.SameCoordinates,6B1BD33C-14DF-4FC0-A095-B567C4E17EB1*
G04*
G04*
G04 #@! TF.FilePolarity,Positive*
G04*
G01*
G75*
%ADD10C,0.00984*%
%ADD11C,0.02362*%
%ADD12C,0.01000*%
%ADD13C,0.00787*%
D10*
X267216Y262846D02*
G03*
X267216Y262846I-492J0D01*
G01*
X247508Y425008D02*
G03*
X247508Y425008I-492J0D01*
G01*
X195508D02*
G03*
X195508Y425008I-492J0D01*
G01*
D11*
X258850Y268555D02*
G03*
X258850Y268555I-1181J0D01*
G01*
D12*
X388020Y415638D02*
Y419638D01*
X408520Y415638D02*
Y419638D01*
X181000Y375500D02*
Y379500D01*
X415000Y429020D02*
X419000D01*
X399000Y260000D02*
Y264000D01*
Y243000D02*
Y247000D01*
X460520Y243778D02*
Y247778D01*
Y265333D02*
Y269333D01*
X179020Y315500D02*
Y319500D01*
X160500Y267189D02*
X171500D01*
X160500Y290811D02*
X171500D01*
X154189Y267189D02*
Y290811D01*
X177811Y267189D02*
Y290811D01*
X280000Y228000D02*
Y232000D01*
X157071Y176784D02*
X290929D01*
X157071Y212216D02*
X290929D01*
Y176784D02*
Y212216D01*
X157071Y176784D02*
Y212216D01*
X254356Y357500D02*
Y361500D01*
Y375250D02*
Y379250D01*
X245263Y223000D02*
X249263D01*
X217500D02*
X221500D01*
X231381D02*
X235381D01*
X184000Y261500D02*
Y265500D01*
X293000Y351520D02*
X297000D01*
X327500Y216020D02*
X331500D01*
X298020Y244500D02*
Y248500D01*
X319500Y244500D02*
Y248500D01*
X330000Y351520D02*
X334000D01*
X307500Y216020D02*
X311500D01*
X298504Y261595D02*
Y273406D01*
Y261595D02*
X330000D01*
X298504Y273406D02*
X330000D01*
Y261595D02*
Y273406D01*
X283004Y261595D02*
Y273406D01*
Y261595D02*
X285004D01*
X283004Y273406D02*
X285504D01*
X326000Y391000D02*
X330000D01*
X337122Y317622D02*
Y321843D01*
Y302157D02*
Y306878D01*
X289878Y317122D02*
Y321843D01*
Y302157D02*
Y306878D01*
Y321843D02*
X337122D01*
X289878Y302157D02*
X337122D01*
X230500Y367000D02*
Y371000D01*
X289500Y375000D02*
Y379000D01*
X198000Y329500D02*
Y333500D01*
Y311000D02*
Y315000D01*
X289520Y358000D02*
Y362000D01*
X183980Y282000D02*
Y286000D01*
X231605Y464000D02*
Y468000D01*
X237504Y464000D02*
Y468000D01*
X301500Y406500D02*
X305500D01*
X284500D02*
X288500D01*
X265500D02*
X269500D01*
X246500D02*
X250500D01*
X226500D02*
X230500D01*
X206500D02*
X210500D01*
X186500D02*
X190500D01*
X167500D02*
X171500D01*
X187418Y464000D02*
Y468000D01*
X181520Y464000D02*
Y468000D01*
X415000Y451000D02*
X419000D01*
X398000D02*
X402000D01*
X379000D02*
X383000D01*
X360000D02*
X364000D01*
X340000D02*
X344000D01*
X319000D02*
X323000D01*
X299000D02*
X303000D01*
X280000D02*
X284000D01*
X418020Y281167D02*
Y285167D01*
Y302722D02*
Y306722D01*
X431800Y491200D02*
Y497198D01*
X434799D01*
X435799Y496198D01*
Y494199D01*
X434799Y493199D01*
X431800D01*
X440797Y491200D02*
Y497198D01*
X437798Y494199D01*
X441797D01*
X384800Y491200D02*
Y497198D01*
X387799D01*
X388799Y496198D01*
Y494199D01*
X387799Y493199D01*
X384800D01*
X390798Y496198D02*
X391798Y497198D01*
X393797D01*
X394797Y496198D01*
Y495199D01*
X393797Y494199D01*
X392797D01*
X393797D01*
X394797Y493199D01*
Y492200D01*
X393797Y491200D01*
X391798D01*
X390798Y492200D01*
X374900Y423438D02*
Y429436D01*
X377899D01*
X378899Y428436D01*
Y426437D01*
X377899Y425437D01*
X374900D01*
X376899D02*
X378899Y423438D01*
X380898D02*
X382897D01*
X381898D01*
Y429436D01*
X380898Y428436D01*
X385896D02*
X386896Y429436D01*
X388896D01*
X389895Y428436D01*
Y427436D01*
X388896Y426437D01*
X387896D01*
X388896D01*
X389895Y425437D01*
Y424438D01*
X388896Y423438D01*
X386896D01*
X385896Y424438D01*
X395400Y423438D02*
Y429436D01*
X398399D01*
X399399Y428436D01*
Y426437D01*
X398399Y425437D01*
X395400D01*
X397399D02*
X399399Y423438D01*
X401398D02*
X403397D01*
X402398D01*
Y429436D01*
X401398Y428436D01*
X410395Y423438D02*
X406396D01*
X410395Y427436D01*
Y428436D01*
X409396Y429436D01*
X407396D01*
X406396Y428436D01*
X174998Y379500D02*
X175998Y378500D01*
Y376501D01*
X174998Y375501D01*
X173999D01*
X172999Y376501D01*
Y377501D01*
Y376501D01*
X171999Y375501D01*
X171000D01*
X170000Y376501D01*
Y378500D01*
X171000Y379500D01*
X175998Y373502D02*
X171999D01*
X170000Y371503D01*
X171999Y369503D01*
X175998D01*
X174998Y367504D02*
X175998Y366504D01*
Y364505D01*
X174998Y363505D01*
X173999D01*
X172999Y364505D01*
Y365505D01*
Y364505D01*
X171999Y363505D01*
X171000D01*
X170000Y364505D01*
Y366504D01*
X171000Y367504D01*
X175998Y355508D02*
X170000D01*
Y351509D01*
X175998Y345511D02*
Y349510D01*
X170000D01*
Y345511D01*
X172999Y349510D02*
Y347510D01*
X175998Y343512D02*
X170000D01*
Y340513D01*
X171000Y339513D01*
X174998D01*
X175998Y340513D01*
Y343512D01*
X181500Y389298D02*
Y383300D01*
X184499D01*
X185499Y384300D01*
Y388298D01*
X184499Y389298D01*
X181500D01*
X187498Y383300D02*
X189497D01*
X188498D01*
Y389298D01*
X187498Y388298D01*
X192496D02*
X193496Y389298D01*
X195495D01*
X196495Y388298D01*
Y384300D01*
X195495Y383300D01*
X193496D01*
X192496Y384300D01*
Y388298D01*
X415200Y438498D02*
Y432500D01*
X418199D01*
X419199Y433500D01*
Y437498D01*
X418199Y438498D01*
X415200D01*
X421198Y433500D02*
X422198Y432500D01*
X424197D01*
X425197Y433500D01*
Y437498D01*
X424197Y438498D01*
X422198D01*
X421198Y437498D01*
Y436499D01*
X422198Y435499D01*
X425197D01*
X203600Y332598D02*
Y327600D01*
X204600Y326600D01*
X206599D01*
X207599Y327600D01*
Y332598D01*
X209598Y326600D02*
X211597D01*
X210598D01*
Y332598D01*
X209598Y331598D01*
X434700Y406198D02*
X438699Y402200D01*
X434700D02*
X438699Y406198D01*
X434700Y404199D02*
X438699D01*
X436699Y402200D02*
Y406198D01*
X399520Y273798D02*
Y267800D01*
X402519D01*
X403518Y268800D01*
Y272798D01*
X402519Y273798D01*
X399520D01*
X409516D02*
X405518D01*
Y270799D01*
X407517Y271799D01*
X408517D01*
X409516Y270799D01*
Y268800D01*
X408517Y267800D01*
X406517D01*
X405518Y268800D01*
X399500Y256798D02*
Y250800D01*
X402499D01*
X403499Y251800D01*
Y255798D01*
X402499Y256798D01*
X399500D01*
X409497D02*
X407497Y255798D01*
X405498Y253799D01*
Y251800D01*
X406498Y250800D01*
X408497D01*
X409497Y251800D01*
Y252799D01*
X408497Y253799D01*
X405498D01*
X447400Y257498D02*
Y251500D01*
X450399D01*
X451399Y252500D01*
Y256498D01*
X450399Y257498D01*
X447400D01*
X456397Y251500D02*
Y257498D01*
X453398Y254499D01*
X457397D01*
X447400Y279098D02*
Y273100D01*
X450399D01*
X451399Y274100D01*
Y278098D01*
X450399Y279098D01*
X447400D01*
X453398Y278098D02*
X454398Y279098D01*
X456397D01*
X457397Y278098D01*
Y277099D01*
X456397Y276099D01*
X455397D01*
X456397D01*
X457397Y275099D01*
Y274100D01*
X456397Y273100D01*
X454398D01*
X453398Y274100D01*
X169899Y328298D02*
X168899Y329298D01*
X166900D01*
X165900Y328298D01*
Y324300D01*
X166900Y323300D01*
X168899D01*
X169899Y324300D01*
X174897Y323300D02*
Y329298D01*
X171898Y326299D01*
X175897D01*
X158699Y306498D02*
X157699Y307498D01*
X155700D01*
X154700Y306498D01*
Y305499D01*
X155700Y304499D01*
X157699D01*
X158699Y303499D01*
Y302500D01*
X157699Y301500D01*
X155700D01*
X154700Y302500D01*
X160698Y307498D02*
Y301500D01*
X162697Y303499D01*
X164697Y301500D01*
Y307498D01*
X166696D02*
X168695D01*
X167696D01*
Y301500D01*
X166696D01*
X168695D01*
X171695Y307498D02*
X175693D01*
X173694D01*
Y301500D01*
X181691Y306498D02*
X180692Y307498D01*
X178692D01*
X177693Y306498D01*
Y302500D01*
X178692Y301500D01*
X180692D01*
X181691Y302500D01*
X183691Y307498D02*
Y301500D01*
Y304499D01*
X187689D01*
Y307498D01*
Y301500D01*
X189689D02*
X191688D01*
X190688D01*
Y307498D01*
X189689Y306498D01*
X266900Y235800D02*
Y241798D01*
X269899D01*
X270899Y240798D01*
Y238799D01*
X269899Y237799D01*
X266900D01*
X268899D02*
X270899Y235800D01*
X272898Y241798D02*
X276897D01*
Y240798D01*
X272898Y236800D01*
Y235800D01*
X161599Y220698D02*
X160599Y221698D01*
X158600D01*
X157600Y220698D01*
Y219699D01*
X158600Y218699D01*
X160599D01*
X161599Y217699D01*
Y216700D01*
X160599Y215700D01*
X158600D01*
X157600Y216700D01*
X163598Y221698D02*
Y215700D01*
X165597Y217699D01*
X167597Y215700D01*
Y221698D01*
X169596D02*
Y215700D01*
X172595D01*
X173595Y216700D01*
Y220698D01*
X172595Y221698D01*
X169596D01*
X175594Y215700D02*
X177594D01*
X176594D01*
Y221698D01*
X175594Y220698D01*
X287500Y209500D02*
X285501D01*
X286500D01*
Y203502D01*
X287500Y204502D01*
X245500Y240100D02*
Y246098D01*
X248499D01*
X249499Y245098D01*
Y243099D01*
X248499Y242099D01*
X245500D01*
X247499D02*
X249499Y240100D01*
X255497Y246098D02*
X251498D01*
Y243099D01*
X253497Y244099D01*
X254497D01*
X255497Y243099D01*
Y241100D01*
X254497Y240100D01*
X252498D01*
X251498Y241100D01*
X217700Y240100D02*
Y246098D01*
X220699D01*
X221699Y245098D01*
Y243099D01*
X220699Y242099D01*
X217700D01*
X219699D02*
X221699Y240100D01*
X226697D02*
Y246098D01*
X223698Y243099D01*
X227697D01*
X231600Y240100D02*
Y246098D01*
X234599D01*
X235599Y245098D01*
Y243099D01*
X234599Y242099D01*
X231600D01*
X233599D02*
X235599Y240100D01*
X241597D02*
X237598D01*
X241597Y244099D01*
Y245098D01*
X240597Y246098D01*
X238598D01*
X237598Y245098D01*
X184500Y269300D02*
Y275298D01*
X187499D01*
X188499Y274298D01*
Y272299D01*
X187499Y271299D01*
X184500D01*
X186499D02*
X188499Y269300D01*
X190498Y274298D02*
X191498Y275298D01*
X193497D01*
X194497Y274298D01*
Y273299D01*
X193497Y272299D01*
X192497D01*
X193497D01*
X194497Y271299D01*
Y270300D01*
X193497Y269300D01*
X191498D01*
X190498Y270300D01*
X297199Y359998D02*
X296199Y360998D01*
X294200D01*
X293200Y359998D01*
Y356000D01*
X294200Y355000D01*
X296199D01*
X297199Y356000D01*
X299198Y355000D02*
X301197D01*
X300198D01*
Y360998D01*
X299198Y359998D01*
X304196D02*
X305196Y360998D01*
X307195D01*
X308195Y359998D01*
Y356000D01*
X307195Y355000D01*
X305196D01*
X304196Y356000D01*
Y359998D01*
X334199D02*
X333199Y360998D01*
X331200D01*
X330200Y359998D01*
Y356000D01*
X331200Y355000D01*
X333199D01*
X334199Y356000D01*
X336198D02*
X337198Y355000D01*
X339197D01*
X340197Y356000D01*
Y359998D01*
X339197Y360998D01*
X337198D01*
X336198Y359998D01*
Y358999D01*
X337198Y357999D01*
X340197D01*
X331699Y224498D02*
X330699Y225498D01*
X328700D01*
X327700Y224498D01*
Y220500D01*
X328700Y219500D01*
X330699D01*
X331699Y220500D01*
X333698Y219500D02*
X335697D01*
X334698D01*
Y225498D01*
X333698Y224498D01*
X288899Y257298D02*
X287899Y258298D01*
X285900D01*
X284900Y257298D01*
Y253300D01*
X285900Y252300D01*
X287899D01*
X288899Y253300D01*
X290898Y257298D02*
X291898Y258298D01*
X293897D01*
X294897Y257298D01*
Y256299D01*
X293897Y255299D01*
X294897Y254299D01*
Y253300D01*
X293897Y252300D01*
X291898D01*
X290898Y253300D01*
Y254299D01*
X291898Y255299D01*
X290898Y256299D01*
Y257298D01*
X291898Y255299D02*
X293897D01*
X310399Y257298D02*
X309399Y258298D01*
X307400D01*
X306400Y257298D01*
Y253300D01*
X307400Y252300D01*
X309399D01*
X310399Y253300D01*
X312398Y258298D02*
X316397D01*
Y257298D01*
X312398Y253300D01*
Y252300D01*
X311699Y224498D02*
X310699Y225498D01*
X308700D01*
X307700Y224498D01*
Y220500D01*
X308700Y219500D01*
X310699D01*
X311699Y220500D01*
X317697Y225498D02*
X313698D01*
Y222499D01*
X315697Y223499D01*
X316697D01*
X317697Y222499D01*
Y220500D01*
X316697Y219500D01*
X314698D01*
X313698Y220500D01*
X283500Y294998D02*
Y293998D01*
X285499Y291999D01*
X287499Y293998D01*
Y294998D01*
X285499Y291999D02*
Y289000D01*
X289498D02*
X291497D01*
X290498D01*
Y294998D01*
X289498Y293998D01*
X285504Y283998D02*
X286504Y284998D01*
X288503D01*
X289503Y283998D01*
Y282998D01*
X288503Y281999D01*
X287503D01*
X288503D01*
X289503Y280999D01*
Y279999D01*
X288503Y279000D01*
X286504D01*
X285504Y279999D01*
X295501Y279000D02*
X291502D01*
X295501Y282998D01*
Y283998D01*
X294501Y284998D01*
X292502D01*
X291502Y283998D01*
X297500Y284998D02*
X301499D01*
Y283998D01*
X297500Y279999D01*
Y279000D01*
X307497Y284998D02*
X305498Y283998D01*
X303498Y281999D01*
Y279999D01*
X304498Y279000D01*
X306497D01*
X307497Y279999D01*
Y280999D01*
X306497Y281999D01*
X303498D01*
X309496Y283998D02*
X310496Y284998D01*
X312495D01*
X313495Y283998D01*
Y282998D01*
X312495Y281999D01*
X313495Y280999D01*
Y279999D01*
X312495Y279000D01*
X310496D01*
X309496Y279999D01*
Y280999D01*
X310496Y281999D01*
X309496Y282998D01*
Y283998D01*
X310496Y281999D02*
X312495D01*
X315494Y278000D02*
X319493D01*
X321492Y279000D02*
Y282998D01*
X323492Y284998D01*
X325491Y282998D01*
Y279000D01*
Y281999D01*
X321492D01*
X327490Y284998D02*
X331489D01*
X329490D01*
Y279000D01*
X333488Y283998D02*
X334488Y284998D01*
X336487D01*
X337487Y283998D01*
Y282998D01*
X336487Y281999D01*
X335488D01*
X336487D01*
X337487Y280999D01*
Y279999D01*
X336487Y279000D01*
X334488D01*
X333488Y279999D01*
X339487Y283998D02*
X340486Y284998D01*
X342485D01*
X343485Y283998D01*
Y282998D01*
X342485Y281999D01*
X343485Y280999D01*
Y279999D01*
X342485Y279000D01*
X340486D01*
X339487Y279999D01*
Y280999D01*
X340486Y281999D01*
X339487Y282998D01*
Y283998D01*
X340486Y281999D02*
X342485D01*
X330199Y413098D02*
X329199Y414098D01*
X327200D01*
X326200Y413098D01*
Y409100D01*
X327200Y408100D01*
X329199D01*
X330199Y409100D01*
X336197Y414098D02*
X334197Y413098D01*
X332198Y411099D01*
Y409100D01*
X333198Y408100D01*
X335197D01*
X336197Y409100D01*
Y410099D01*
X335197Y411099D01*
X332198D01*
X284600Y331298D02*
Y330298D01*
X286599Y328299D01*
X288599Y330298D01*
Y331298D01*
X286599Y328299D02*
Y325300D01*
X294597D02*
X290598D01*
X294597Y329299D01*
Y330298D01*
X293597Y331298D01*
X291598D01*
X290598Y330298D01*
X336000Y298000D02*
X334001D01*
X335000D01*
Y292002D01*
X336000Y293002D01*
X327003Y292002D02*
X329002Y293002D01*
X331002Y295001D01*
Y297000D01*
X330002Y298000D01*
X328003D01*
X327003Y297000D01*
Y296001D01*
X328003Y295001D01*
X331002D01*
X325004Y298000D02*
Y292002D01*
X323004Y294001D01*
X321005Y292002D01*
Y298000D01*
X217400Y374800D02*
Y380798D01*
X220399D01*
X221399Y379798D01*
Y377799D01*
X220399Y376799D01*
X217400D01*
X219399D02*
X221399Y374800D01*
X227397Y380798D02*
X225397Y379798D01*
X223398Y377799D01*
Y375800D01*
X224398Y374800D01*
X226397D01*
X227397Y375800D01*
Y376799D01*
X226397Y377799D01*
X223398D01*
X280399Y387798D02*
X279399Y388798D01*
X277400D01*
X276400Y387798D01*
Y383800D01*
X277400Y382800D01*
X279399D01*
X280399Y383800D01*
X286397Y382800D02*
X282398D01*
X286397Y386799D01*
Y387798D01*
X285397Y388798D01*
X283398D01*
X282398Y387798D01*
X188899Y342298D02*
X187899Y343298D01*
X185900D01*
X184900Y342298D01*
Y338300D01*
X185900Y337300D01*
X187899D01*
X188899Y338300D01*
X190898Y342298D02*
X191898Y343298D01*
X193897D01*
X194897Y342298D01*
Y341299D01*
X193897Y340299D01*
X192897D01*
X193897D01*
X194897Y339299D01*
Y338300D01*
X193897Y337300D01*
X191898D01*
X190898Y338300D01*
X200895Y337300D02*
X196896D01*
X200895Y341299D01*
Y342298D01*
X199895Y343298D01*
X197896D01*
X196896Y342298D01*
X188899Y323798D02*
X187899Y324798D01*
X185900D01*
X184900Y323798D01*
Y319800D01*
X185900Y318800D01*
X187899D01*
X188899Y319800D01*
X190898Y323798D02*
X191898Y324798D01*
X193897D01*
X194897Y323798D01*
Y322799D01*
X193897Y321799D01*
X192897D01*
X193897D01*
X194897Y320799D01*
Y319800D01*
X193897Y318800D01*
X191898D01*
X190898Y319800D01*
X196896Y318800D02*
X198896D01*
X197896D01*
Y324798D01*
X196896Y323798D01*
X280399Y370798D02*
X279399Y371798D01*
X277400D01*
X276400Y370798D01*
Y366800D01*
X277400Y365800D01*
X279399D01*
X280399Y366800D01*
X282398Y370798D02*
X283398Y371798D01*
X285397D01*
X286397Y370798D01*
Y369799D01*
X285397Y368799D01*
X284397D01*
X285397D01*
X286397Y367799D01*
Y366800D01*
X285397Y365800D01*
X283398D01*
X282398Y366800D01*
X184500Y289800D02*
Y295798D01*
X187499D01*
X188499Y294798D01*
Y292799D01*
X187499Y291799D01*
X184500D01*
X186499D02*
X188499Y289800D01*
X190498Y294798D02*
X191498Y295798D01*
X193497D01*
X194497Y294798D01*
Y293799D01*
X193497Y292799D01*
X194497Y291799D01*
Y290800D01*
X193497Y289800D01*
X191498D01*
X190498Y290800D01*
Y291799D01*
X191498Y292799D01*
X190498Y293799D01*
Y294798D01*
X191498Y292799D02*
X193497D01*
X254900Y365300D02*
Y371298D01*
X257899D01*
X258899Y370298D01*
Y368299D01*
X257899Y367299D01*
X254900D01*
X256899D02*
X258899Y365300D01*
X260898D02*
X262897D01*
X261898D01*
Y371298D01*
X260898Y370298D01*
X265896D02*
X266896Y371298D01*
X268896D01*
X269895Y370298D01*
Y366300D01*
X268896Y365300D01*
X266896D01*
X265896Y366300D01*
Y370298D01*
X254900Y383000D02*
Y388998D01*
X257899D01*
X258899Y387998D01*
Y385999D01*
X257899Y384999D01*
X254900D01*
X256899D02*
X258899Y383000D01*
X260898Y384000D02*
X261898Y383000D01*
X263897D01*
X264897Y384000D01*
Y387998D01*
X263897Y388998D01*
X261898D01*
X260898Y387998D01*
Y386999D01*
X261898Y385999D01*
X264897D01*
X219700Y455300D02*
Y459299D01*
X221699Y461298D01*
X223699Y459299D01*
Y455300D01*
Y458299D01*
X219700D01*
X225698Y455300D02*
Y461298D01*
X227697Y459299D01*
X229697Y461298D01*
Y455300D01*
X235695Y460298D02*
X234695Y461298D01*
X232696D01*
X231696Y460298D01*
Y459299D01*
X232696Y458299D01*
X234695D01*
X235695Y457299D01*
Y456300D01*
X234695Y455300D01*
X232696D01*
X231696Y456300D01*
X237694Y455300D02*
X239693D01*
X238694D01*
Y461298D01*
X237694Y460298D01*
X222499Y476798D02*
X221499Y477798D01*
X219500D01*
X218500Y476798D01*
Y472800D01*
X219500Y471800D01*
X221499D01*
X222499Y472800D01*
X224498Y471800D02*
X226497D01*
X225498D01*
Y477798D01*
X224498Y476798D01*
X233495Y471800D02*
X229496D01*
X233495Y475799D01*
Y476798D01*
X232495Y477798D01*
X230496D01*
X229496Y476798D01*
X241999D02*
X240999Y477798D01*
X239000D01*
X238000Y476798D01*
Y472800D01*
X239000Y471800D01*
X240999D01*
X241999Y472800D01*
X243998Y471800D02*
X245997D01*
X244998D01*
Y477798D01*
X243998Y476798D01*
X248996Y471800D02*
X250996D01*
X249996D01*
Y477798D01*
X248996Y476798D01*
X167700Y455300D02*
Y459299D01*
X169699Y461298D01*
X171699Y459299D01*
Y455300D01*
Y458299D01*
X167700D01*
X173698Y455300D02*
Y461298D01*
X175697Y459299D01*
X177697Y461298D01*
Y455300D01*
X183695Y460298D02*
X182695Y461298D01*
X180696D01*
X179696Y460298D01*
Y459299D01*
X180696Y458299D01*
X182695D01*
X183695Y457299D01*
Y456300D01*
X182695Y455300D01*
X180696D01*
X179696Y456300D01*
X189693Y455300D02*
X185694D01*
X189693Y459299D01*
Y460298D01*
X188693Y461298D01*
X186694D01*
X185694Y460298D01*
X305699Y414998D02*
X304699Y415998D01*
X302700D01*
X301700Y414998D01*
Y411000D01*
X302700Y410000D01*
X304699D01*
X305699Y411000D01*
X311697Y410000D02*
X307698D01*
X311697Y413999D01*
Y414998D01*
X310697Y415998D01*
X308698D01*
X307698Y414998D01*
X317695Y410000D02*
X313696D01*
X317695Y413999D01*
Y414998D01*
X316695Y415998D01*
X314696D01*
X313696Y414998D01*
X288699D02*
X287699Y415998D01*
X285700D01*
X284700Y414998D01*
Y411000D01*
X285700Y410000D01*
X287699D01*
X288699Y411000D01*
X294697Y410000D02*
X290698D01*
X294697Y413999D01*
Y414998D01*
X293697Y415998D01*
X291698D01*
X290698Y414998D01*
X296696Y410000D02*
X298695D01*
X297696D01*
Y415998D01*
X296696Y414998D01*
X269699D02*
X268699Y415998D01*
X266700D01*
X265700Y414998D01*
Y411000D01*
X266700Y410000D01*
X268699D01*
X269699Y411000D01*
X275697Y410000D02*
X271698D01*
X275697Y413999D01*
Y414998D01*
X274697Y415998D01*
X272698D01*
X271698Y414998D01*
X277696D02*
X278696Y415998D01*
X280695D01*
X281695Y414998D01*
Y411000D01*
X280695Y410000D01*
X278696D01*
X277696Y411000D01*
Y414998D01*
X250699D02*
X249699Y415998D01*
X247700D01*
X246700Y414998D01*
Y411000D01*
X247700Y410000D01*
X249699D01*
X250699Y411000D01*
X252698Y410000D02*
X254697D01*
X253698D01*
Y415998D01*
X252698Y414998D01*
X257696Y411000D02*
X258696Y410000D01*
X260696D01*
X261695Y411000D01*
Y414998D01*
X260696Y415998D01*
X258696D01*
X257696Y414998D01*
Y413999D01*
X258696Y412999D01*
X261695D01*
X230699Y414998D02*
X229699Y415998D01*
X227700D01*
X226700Y414998D01*
Y411000D01*
X227700Y410000D01*
X229699D01*
X230699Y411000D01*
X232698Y410000D02*
X234697D01*
X233698D01*
Y415998D01*
X232698Y414998D01*
X237696D02*
X238696Y415998D01*
X240696D01*
X241695Y414998D01*
Y413999D01*
X240696Y412999D01*
X241695Y411999D01*
Y411000D01*
X240696Y410000D01*
X238696D01*
X237696Y411000D01*
Y411999D01*
X238696Y412999D01*
X237696Y413999D01*
Y414998D01*
X238696Y412999D02*
X240696D01*
X210699Y414998D02*
X209699Y415998D01*
X207700D01*
X206700Y414998D01*
Y411000D01*
X207700Y410000D01*
X209699D01*
X210699Y411000D01*
X212698Y410000D02*
X214697D01*
X213698D01*
Y415998D01*
X212698Y414998D01*
X217696Y415998D02*
X221695D01*
Y414998D01*
X217696Y411000D01*
Y410000D01*
X190699Y414998D02*
X189699Y415998D01*
X187700D01*
X186700Y414998D01*
Y411000D01*
X187700Y410000D01*
X189699D01*
X190699Y411000D01*
X192698Y410000D02*
X194697D01*
X193698D01*
Y415998D01*
X192698Y414998D01*
X201695Y415998D02*
X199696Y414998D01*
X197696Y412999D01*
Y411000D01*
X198696Y410000D01*
X200695D01*
X201695Y411000D01*
Y411999D01*
X200695Y412999D01*
X197696D01*
X171699Y414998D02*
X170699Y415998D01*
X168700D01*
X167700Y414998D01*
Y411000D01*
X168700Y410000D01*
X170699D01*
X171699Y411000D01*
X173698Y410000D02*
X175697D01*
X174698D01*
Y415998D01*
X173698Y414998D01*
X182695Y415998D02*
X178696D01*
Y412999D01*
X180696Y413999D01*
X181695D01*
X182695Y412999D01*
Y411000D01*
X181695Y410000D01*
X179696D01*
X178696Y411000D01*
X191899Y476798D02*
X190899Y477798D01*
X188900D01*
X187900Y476798D01*
Y472800D01*
X188900Y471800D01*
X190899D01*
X191899Y472800D01*
X193898Y471800D02*
X195897D01*
X194898D01*
Y477798D01*
X193898Y476798D01*
X201895Y471800D02*
Y477798D01*
X198896Y474799D01*
X202895D01*
X172399Y476798D02*
X171399Y477798D01*
X169400D01*
X168400Y476798D01*
Y472800D01*
X169400Y471800D01*
X171399D01*
X172399Y472800D01*
X174398Y471800D02*
X176397D01*
X175398D01*
Y477798D01*
X174398Y476798D01*
X179396D02*
X180396Y477798D01*
X182396D01*
X183395Y476798D01*
Y475799D01*
X182396Y474799D01*
X181396D01*
X182396D01*
X183395Y473799D01*
Y472800D01*
X182396Y471800D01*
X180396D01*
X179396Y472800D01*
X419199Y459498D02*
X418199Y460498D01*
X416200D01*
X415200Y459498D01*
Y455500D01*
X416200Y454500D01*
X418199D01*
X419199Y455500D01*
X421198Y459498D02*
X422198Y460498D01*
X424197D01*
X425197Y459498D01*
Y458499D01*
X424197Y457499D01*
X423197D01*
X424197D01*
X425197Y456499D01*
Y455500D01*
X424197Y454500D01*
X422198D01*
X421198Y455500D01*
X427196Y459498D02*
X428196Y460498D01*
X430195D01*
X431195Y459498D01*
Y455500D01*
X430195Y454500D01*
X428196D01*
X427196Y455500D01*
Y459498D01*
X402199D02*
X401199Y460498D01*
X399200D01*
X398200Y459498D01*
Y455500D01*
X399200Y454500D01*
X401199D01*
X402199Y455500D01*
X408197Y454500D02*
X404198D01*
X408197Y458499D01*
Y459498D01*
X407197Y460498D01*
X405198D01*
X404198Y459498D01*
X410196Y455500D02*
X411196Y454500D01*
X413195D01*
X414195Y455500D01*
Y459498D01*
X413195Y460498D01*
X411196D01*
X410196Y459498D01*
Y458499D01*
X411196Y457499D01*
X414195D01*
X383199Y459498D02*
X382199Y460498D01*
X380200D01*
X379200Y459498D01*
Y455500D01*
X380200Y454500D01*
X382199D01*
X383199Y455500D01*
X389197Y454500D02*
X385198D01*
X389197Y458499D01*
Y459498D01*
X388197Y460498D01*
X386198D01*
X385198Y459498D01*
X391196D02*
X392196Y460498D01*
X394195D01*
X395195Y459498D01*
Y458499D01*
X394195Y457499D01*
X395195Y456499D01*
Y455500D01*
X394195Y454500D01*
X392196D01*
X391196Y455500D01*
Y456499D01*
X392196Y457499D01*
X391196Y458499D01*
Y459498D01*
X392196Y457499D02*
X394195D01*
X364199Y459498D02*
X363199Y460498D01*
X361200D01*
X360200Y459498D01*
Y455500D01*
X361200Y454500D01*
X363199D01*
X364199Y455500D01*
X370197Y454500D02*
X366198D01*
X370197Y458499D01*
Y459498D01*
X369197Y460498D01*
X367198D01*
X366198Y459498D01*
X372196Y460498D02*
X376195D01*
Y459498D01*
X372196Y455500D01*
Y454500D01*
X344199Y459498D02*
X343199Y460498D01*
X341200D01*
X340200Y459498D01*
Y455500D01*
X341200Y454500D01*
X343199D01*
X344199Y455500D01*
X350197Y454500D02*
X346198D01*
X350197Y458499D01*
Y459498D01*
X349197Y460498D01*
X347198D01*
X346198Y459498D01*
X356195Y460498D02*
X354195Y459498D01*
X352196Y457499D01*
Y455500D01*
X353196Y454500D01*
X355195D01*
X356195Y455500D01*
Y456499D01*
X355195Y457499D01*
X352196D01*
X323199Y459498D02*
X322199Y460498D01*
X320200D01*
X319200Y459498D01*
Y455500D01*
X320200Y454500D01*
X322199D01*
X323199Y455500D01*
X329197Y454500D02*
X325198D01*
X329197Y458499D01*
Y459498D01*
X328197Y460498D01*
X326198D01*
X325198Y459498D01*
X335195Y460498D02*
X331196D01*
Y457499D01*
X333195Y458499D01*
X334195D01*
X335195Y457499D01*
Y455500D01*
X334195Y454500D01*
X332196D01*
X331196Y455500D01*
X303199Y459498D02*
X302199Y460498D01*
X300200D01*
X299200Y459498D01*
Y455500D01*
X300200Y454500D01*
X302199D01*
X303199Y455500D01*
X309197Y454500D02*
X305198D01*
X309197Y458499D01*
Y459498D01*
X308197Y460498D01*
X306198D01*
X305198Y459498D01*
X314195Y454500D02*
Y460498D01*
X311196Y457499D01*
X315195D01*
X284199Y459498D02*
X283199Y460498D01*
X281200D01*
X280200Y459498D01*
Y455500D01*
X281200Y454500D01*
X283199D01*
X284199Y455500D01*
X290197Y454500D02*
X286198D01*
X290197Y458499D01*
Y459498D01*
X289197Y460498D01*
X287198D01*
X286198Y459498D01*
X292196D02*
X293196Y460498D01*
X295195D01*
X296195Y459498D01*
Y458499D01*
X295195Y457499D01*
X294196D01*
X295195D01*
X296195Y456499D01*
Y455500D01*
X295195Y454500D01*
X293196D01*
X292196Y455500D01*
X404900Y294898D02*
Y288900D01*
X407899D01*
X408899Y289900D01*
Y293898D01*
X407899Y294898D01*
X404900D01*
X414897Y288900D02*
X410898D01*
X414897Y292899D01*
Y293898D01*
X413897Y294898D01*
X411898D01*
X410898Y293898D01*
X404900Y316520D02*
Y310522D01*
X407899D01*
X408899Y311522D01*
Y315521D01*
X407899Y316520D01*
X404900D01*
X410898Y310522D02*
X412897D01*
X411898D01*
Y316520D01*
X410898Y315521D01*
X424100Y264400D02*
Y270398D01*
X427099D01*
X428099Y269398D01*
Y267399D01*
X427099Y266399D01*
X424100D01*
X434097Y264400D02*
X430098D01*
X434097Y268399D01*
Y269398D01*
X433097Y270398D01*
X431098D01*
X430098Y269398D01*
X375100Y263400D02*
Y269398D01*
X378099D01*
X379099Y268398D01*
Y266399D01*
X378099Y265399D01*
X375100D01*
X381098Y263400D02*
X383097D01*
X382098D01*
Y269398D01*
X381098Y268398D01*
D13*
X261606Y264618D02*
Y313831D01*
X212394Y264618D02*
Y313831D01*
Y264618D02*
X261606D01*
X212394Y313831D02*
X261606D01*
X434071Y398764D02*
X452575D01*
X434071Y319236D02*
X452575D01*
Y324354D01*
X434071Y319236D02*
Y398764D01*
X436630Y319236D02*
Y398764D01*
X452575Y393646D02*
Y398764D01*
X229398Y451189D02*
X241602D01*
X229398Y424811D02*
X241602D01*
X229398D02*
Y451189D01*
X241602Y424811D02*
Y451189D01*
X177398D02*
X189602D01*
X177398Y424811D02*
X189602D01*
X177398D02*
Y451189D01*
X189602Y424811D02*
Y451189D01*
X423500Y201000D02*
X433500D01*
X423500Y261000D02*
X433500D01*
Y201000D02*
Y261000D01*
X423500Y201000D02*
Y261000D01*
X374500Y200000D02*
X384500D01*
X374500Y260000D02*
X384500D01*
Y200000D02*
Y260000D01*
X374500Y200000D02*
Y260000D01*
M02*
